<?xml version="1.0" encoding="UTF-8"?>
<svg xmlns="http://www.w3.org/2000/svg" viewBox="0 0 256 256" width="256" height="256">
  <title>CryptoHack mark (simplified vector)</title>
  <desc>Flat, small-size-optimized reinterpretation of the CryptoHack brain-with-lightning mascot for badge usage.</desc>
  <defs>
    <clipPath id="clip">
      <rect x="0" y="0" width="256" height="256" rx="32" ry="32"/>
    </clipPath>
  </defs>

  <!-- Background transparent -->

  <!-- Yellow lightning burst -->
  <path fill="#FDB515" d="
    M140 16
    l18 34 39 -8 -18 33 32 22 -37 12 9 39 -34 -18 -22 32 -12 -37 -39 9 18 -34 -32 -22 37 -12 -9 -39 34 18 22 -32z
  " transform="translate(0,24)"/>

  <!-- Blue sparks -->
  <g fill="#14B2D6">
    <path d="M36 80c6-8 16-7 18 3-6 8-16 7-18-3z"/>
    <path d="M212 92c-7-7-2-17 8-16 7 7 2 17-8 16z"/>
    <path d="M58 178c6-8 16-7 18 3-6 8-16 7-18-3z"/>
    <path d="M206 168c-7-7-2-17 8-16 7 7 2 17-8 16z"/>
  </g>

  <!-- Arms (navy) -->
  <g fill="#0A2843">
    <path d="M74 82c10-6 22 4 18 15-9 23-23 34-31 29-8-5 1-22 13-44z"/>
    <path d="M189 82c-10-6-22 4-18 15 9 23 23 34 31 29 8-5-1-22-13-44z"/>
  </g>

  <!-- Brain body (orange) -->
  <path fill="#F04A24" d="
    M128 66
    c37 0 62 22 62 50s-25 50-62 50-62-22-62-50 25-50 62-50z
  "/>

  <!-- Brain folds (yellow) -->
  <g fill="#FDB515">
    <path d="M86 102c10-9 25-11 32-6 2 2 0 6-3 7-9 3-19 5-29-1z"/>
    <path d="M110 86c7-6 18-6 24-2 2 2 0 5-3 6-7 2-13 2-21-4z"/>
    <path d="M146 88c9-5 22-2 27 5 1 2-1 5-4 5-8 0-15-3-23-10z"/>
    <path d="M90 130c8 6 22 8 31 5 3-1 4 4 1 6-8 5-25 5-35-5z"/>
    <path d="M138 138c10 6 24 6 34 1 3-1 5 4 2 6-9 7-28 7-39-3z"/>
  </g>

  <!-- Eyes -->
  <g>
    <ellipse cx="105" cy="118" rx="10" ry="14" fill="#FFFFFF"/>
    <ellipse cx="152" cy="118" rx="10" ry="14" fill="#FFFFFF"/>
    <path d="M101 118c3-5 7-5 10 0-3 5-7 5-10 0z" fill="#14B2D6"/>
    <path d="M148 118c3-5 7-5 10 0-3 5-7 5-10 0z" fill="#14B2D6"/>
  </g>

  <!-- Mouth / outline accents (navy) -->
  <g fill="#0A2843">
    <path d="M120 134c6 2 12 2 18 0 2-1 4 2 2 4-7 6-15 6-22 0-2-2 0-5 2-4z"/>
    <path d="M128 156c14 18 14 18 0 0z" opacity="0.0"/>
  </g>
</svg>
